<?xml version="1.0" encoding="utf-8"?>
<!-- Svg Vector Icons : http://www.onlinewebfonts.com/icon -->
<!DOCTYPE svg PUBLIC "-//W3C//DTD SVG 1.1//EN" "http://www.w3.org/Graphics/SVG/1.1/DTD/svg11.dtd">
<svg version="1.1" xmlns="http://www.w3.org/2000/svg" xmlns:xlink="http://www.w3.org/1999/xlink" x="0px" y="0px" viewBox="0 0 1000 1000" enable-background="new 0 0 1000 1000" xml:space="preserve">
<metadata> Svg Vector Icons : http://www.onlinewebfonts.com/icon </metadata>
<g><g transform="translate(0.000000,512.000000) scale(0.100000,-0.100000)"><path d="M4311,4999.1c-540.6-88.2-1136.9-308.7-1505-556c-720.9-487-1121.6-1135-1342-2174.1c-103.5-485-147.6-603.9-276.1-720.9c-92-86.3-193.6-289.5-258.8-517.6c-70.9-253.1-92-396.9-93.9-632.7c0-228.2,9.6-283.7,147.6-786c80.5-291.4,86.3-322.1,95.9-632.7c15.3-517.6,57.5-603.9,337.4-694c209-69,220.5-88.2,247.3-452.5c11.5-143.8,38.3-341.3,61.4-439c30.7-126.5,38.3-201.3,26.8-272.2c-28.8-218.6-42.2-546.4-28.8-728.5c26.8-339.3,174.5-680.6,341.3-784.1c38.3-24.9,128.5-82.4,199.4-126.5c153.4-97.8,335.5-159.1,644.2-216.6c293.3-55.6,878.1-61.3,1144.6-11.5c207.1,40.3,458.2,111.2,659.5,187.9c301,116.9,1064,575.2,1342,805.2c130.4,109.3,314.4,371.9,391.1,561.7c26.8,65.2,70.9,199.4,97.8,295.3c164.9,594.3,306.7,761.1,1089,1282.6c663.3,442.9,770.7,542.6,935.6,870.4c174.5,348.9,467.8,1474.3,567.5,2176c36.4,262.7,40.3,686.4,9.6,874.2c-122.7,738.1-573.2,1366.9-1353.5,1890.4c-352.8,235.8-665.3,364.3-1250,511.9C5524.6,4964.6,4725.1,5068.1,4311,4999.1z M4311,1260.6c245.4-57.5,490.8-151.5,803.3-308.7c483.2-241.6,755.4-467.8,876.2-726.6c118.9-253.1-7.7-755.4-243.5-977.8c-153.4-143.8-274.1-189.8-527.2-197.5c-343.2-11.5-837.8,70.9-1042.9,172.5c-101.6,51.7-143.8,88.2-226.2,197.5c-159.1,212.8-575.2,1094.7-623.1,1326.7c-28.8,138,5.7,207,164.9,320.2C3776.1,1270.2,4021.5,1327.7,4311,1260.6z M2027.6,1193.5c226.2-38.3,533-218.6,655.7-389.2c46-65.2,55.6-95.9,55.6-193.6c0-485-450.5-1014.2-901.1-1056.4c-116.9-11.5-132.3-7.7-266.5,59.4c-168.7,84.4-289.5,197.5-325.9,304.8c-42.2,124.6-49.8,533-13.4,686.4c82.4,350.8,262.7,546.4,542.6,586.7c61.3,9.6,115,17.3,120.8,19.2C1901.1,1210.8,1960.5,1203.1,2027.6,1193.5z M2842.4-301.9c209-78.6,634.6-755.4,657.6-1043c9.6-97.8,3.8-124.6-28.8-164.9c-38.3-47.9-42.2-47.9-304.8-42.2c-226.2,3.8-283.7-1.9-379.6-34.5c-143.8-49.9-166.8-47.9-239.6,11.5c-187.9,159.1-224.3,600.1-76.7,954.8C2537.6-461,2599-369,2675.6-317.2C2737-278.9,2773.4-275.1,2842.4-301.9z M6427.6-1354.5c93.9-40.3,136.1-97.8,118.8-164.9c-11.5-44.1-70.9-74.8-251.1-122.7c-118.9-30.7-222.4-118.9-425.6-362.3c-251.2-301-456.3-504.2-686.4-678.7c-281.8-212.8-301-237.7-314.4-393c-15.3-153.4-42.2-210.9-107.4-228.1c-59.4-15.4-86.3,5.8-163,126.5c-105.4,164.9-172.5,138-172.5-70.9c0-103.5-7.7-130.4-47.9-168.7c-92-93.9-184.1-42.2-258.8,145.7c-40.3,103.5-55.6,122.7-99.7,128.5c-42.2,5.7-53.7-3.8-69-57.5c-11.5-34.5-24.9-103.5-32.6-153.4c-15.3-113.1-70.9-187.9-141.9-187.9c-76.7,0-128.5,67.1-164.9,214.7c-36.4,143.8-88.2,209-140,176.4c-17.3-11.5-53.7-86.3-80.5-164.9c-55.6-168.7-82.4-207.1-147.6-207.1c-72.8,0-134.2,76.7-157.2,203.2c-28.8,141.9-51.8,197.5-88.2,210.9c-47.9,19.2-101.6-46-134.2-161c-30.7-101.6-130.4-233.9-178.3-233.9c-11.5,0-42.2,26.9-69,59.4c-42.2,47.9-49.8,78.6-49.8,172.5c0,151.5-40.3,232-111.2,224.3c-46-5.8-53.7-19.2-92-153.4c-49.8-180.2-70.9-210.9-149.5-203.2c-51.8,5.7-61.4,15.3-76.7,78.6c-21.1,80.5,11.5,544.5,47.9,707.5c26.8,124.6,92,214.7,157.2,222.4c44.1,5.8,57.5-3.8,80.5-61.3c15.3-36.4,28.8-105.4,28.8-149.5c1.9-189.8,69-170.6,182.1,53.7c78.6,155.3,103.5,174.5,191.7,153.4c59.4-15.3,92-115,82.4-266.5c-5.7-115-3.8-118.9,44.1-124.6c57.5-7.7,97.8,44.1,130.4,163c19.2,69,67.1,130.4,130.4,166.8c38.3,21.1,132.3-38.3,155.3-97.8c11.5-28.8,30.7-92,46-138c32.6-109.3,86.3-147.6,145.7-105.4c30.7,21.1,42.2,47.9,42.2,101.6c0,113.1,34.5,187.9,97.8,212.8c82.4,34.5,140-11.5,191.7-151.5c23-63.3,57.5-130.4,76.7-147.6c34.5-30.7,40.3-30.7,67.1-5.8c15.3,17.3,40.3,76.7,55.6,134.2c28.8,111.2,82.4,170.6,153.4,170.6c51.8,0,90.1-42.2,140-155.3c42.2-97.8,63.3-118.9,105.4-101.6c36.4,13.4,65.2,78.6,80.5,191.7c15.3,101.6,51.8,155.3,122.7,182.1c69,26.9,111.2,3.8,143.8-78.6c38.3-97.8,72.9-97.8,197.5,5.7c122.7,99.7,262.6,253.1,628.8,694c155.3,186,318.3,364.3,362.4,396.9c72.8,53.7,86.3,57.5,199.4,46C6289.6-1312.3,6381.6-1333.3,6427.6-1354.5z"/></g></g>
</svg>